<?xml version="1.0" encoding="utf-8"?>
<!-- Generator: Adobe Illustrator 24.2.3, SVG Export Plug-In . SVG Version: 6.00 Build 0)  -->
<svg version="1.1" id="Ebene_1" xmlns="http://www.w3.org/2000/svg" xmlns:xlink="http://www.w3.org/1999/xlink" x="0px" y="0px"
	 viewBox="0 0 936.79 518.58" style="enable-background:new 0 0 936.79 518.58;" xml:space="preserve">
<style type="text/css">
	.st0{clip-path:url(#SVGID_2_);}
	.st1{fill:url(#SVGID_5_);}
	.st2{fill:url(#SVGID_6_);}
	.st3{fill:url(#SVGID_7_);}
	.st4{fill:url(#SVGID_8_);}
	.st5{fill:url(#SVGID_9_);}
	.st6{fill:url(#SVGID_10_);}
	.st7{fill:url(#SVGID_11_);}
	.st8{fill:url(#SVGID_12_);}
	.st9{clip-path:url(#SVGID_14_);}
	.st10{fill:url(#SVGID_17_);}
	.st11{fill:url(#SVGID_18_);}
	.st12{fill:url(#SVGID_19_);}
	.st13{fill:url(#SVGID_20_);}
	.st14{clip-path:url(#SVGID_22_);}
</style>
<g>
	<linearGradient id="SVGID_2_" gradientUnits="userSpaceOnUse" x1="251.0173" y1="315.4576" x2="60.0449" y2="258.6366">
		<stop  offset="0" style="stop-color:#00FFFF"/>
		<stop  offset="0.2533" style="stop-color:#00E5FF"/>
		<stop  offset="0.7504" style="stop-color:#00B7FF"/>
		<stop  offset="1" style="stop-color:#00A5FF"/>
	</linearGradient>
	<path style="fill:url(#SVGID_2_);" d="M89.21,160.61h74.01c12.22,0,23.34,1.83,33.34,5.5s18.55,8.83,25.67,15.5
		c7.11,6.67,12.61,14.67,16.5,24c3.89,9.33,5.83,19.67,5.83,31v87.67c0,11.33-1.95,21.73-5.83,31.17
		c-3.89,9.45-9.39,17.5-16.5,24.17c-7.12,6.67-15.67,11.83-25.67,15.5s-21.12,5.5-33.34,5.5H89.21V160.61z M131.22,362.29h32
		c12,0,21.55-3.5,28.67-10.5c7.11-7,10.67-16.17,10.67-27.5v-87.67c0-11.33-3.56-20.45-10.67-27.34
		c-7.12-6.89-16.67-10.33-28.67-10.33h-32V362.29z"/>
	<linearGradient id="SVGID_4_" gradientUnits="userSpaceOnUse" x1="455.0297" y1="307.4333" x2="274.6178" y2="253.7543">
		<stop  offset="0" style="stop-color:#00FFFF"/>
		<stop  offset="0.2533" style="stop-color:#00E5FF"/>
		<stop  offset="0.7504" style="stop-color:#00B7FF"/>
		<stop  offset="1" style="stop-color:#00A5FF"/>
	</linearGradient>
	<path style="fill:url(#SVGID_4_);" d="M364.9,403.96c-12,0-22.95-1.72-32.84-5.17c-9.89-3.44-18.28-8.39-25.17-14.83
		c-6.89-6.44-12.23-14.22-16-23.34c-3.78-9.11-5.67-19.22-5.67-30.34v-99.68c0-11.11,1.89-21.17,5.67-30.17
		c3.78-9,9.11-16.72,16-23.17c6.89-6.44,15.28-11.39,25.17-14.83c9.89-3.44,20.83-5.17,32.84-5.17s22.95,1.72,32.84,5.17
		c9.89,3.45,18.28,8.39,25.17,14.83c6.89,6.45,12.22,14.17,16,23.17c3.78,9,5.67,19.06,5.67,30.17v99.68c0,10.89-1.89,20.89-5.67,30
		c-3.78,9.12-9.17,16.89-16.17,23.33c-7,6.45-15.39,11.45-25.17,15C387.79,402.18,376.9,403.96,364.9,403.96z M326.9,330.29
		c0,11.33,3.44,20.33,10.33,27c6.89,6.67,16.11,10,27.67,10c11.55,0,20.78-3.33,27.67-10c6.89-6.67,10.33-15.67,10.33-27v-99.68
		c0-11.33-3.45-20.33-10.33-27c-6.89-6.67-16.12-10-27.67-10c-11.56,0-20.78,3.33-27.67,10c-6.89,6.67-10.33,15.67-10.33,27V330.29z
		"/>
	<linearGradient id="SVGID_5_" gradientUnits="userSpaceOnUse" x1="633.5278" y1="308.7512" x2="460.7893" y2="257.3554">
		<stop  offset="0" style="stop-color:#00FFFF"/>
		<stop  offset="0.2533" style="stop-color:#00E5FF"/>
		<stop  offset="0.7504" style="stop-color:#00B7FF"/>
		<stop  offset="1" style="stop-color:#00A5FF"/>
	</linearGradient>
	<path class="st1" d="M572.58,160.61c12,0,22.94,1.72,32.84,5.17c9.89,3.45,18.28,8.33,25.17,14.67c6.89,6.33,12.22,14,16,23
		c3.78,9,5.67,19.06,5.67,30.17c0,10.89-1.89,20.84-5.67,29.84c-3.78,9-9.17,16.67-16.17,23c-7,6.33-15.39,11.22-25.17,14.67
		c-9.78,3.45-20.67,5.17-32.67,5.17h-41.34v94.34h-41.67V160.61H572.58z M531.25,270.95h41.34c11.55,0,20.67-3.39,27.33-10.17
		c6.67-6.78,10-15.83,10-27.17c0-11.33-3.33-20.44-10-27.34c-6.67-6.89-15.78-10.33-27.33-10.33h-41.34V270.95z"/>
	<linearGradient id="SVGID_6_" gradientUnits="userSpaceOnUse" x1="857.832" y1="308.0752" x2="675.7473" y2="253.8985">
		<stop  offset="0" style="stop-color:#00FFFF"/>
		<stop  offset="0.2533" style="stop-color:#00E5FF"/>
		<stop  offset="0.7504" style="stop-color:#00B7FF"/>
		<stop  offset="1" style="stop-color:#00A5FF"/>
	</linearGradient>
	<path class="st2" d="M683.26,336.95h42.67c0.44,9.56,4.22,17.06,11.33,22.5c7.11,5.45,16.67,8.17,28.67,8.17
		c12.44,0,22-2.78,28.67-8.33c6.67-5.55,10-13,10-22.34c0-8.22-2.56-15.39-7.67-21.5c-5.12-6.11-12.12-10.39-21-12.83l-26.34-7.67
		c-20.45-5.55-35.84-14.33-46.17-26.33c-10.33-12-15.5-27-15.5-45c0-10,1.83-19.11,5.5-27.33c3.67-8.22,8.83-15.22,15.5-21
		c6.67-5.78,14.78-10.28,24.34-13.5c9.55-3.22,20.33-4.83,32.34-4.83c22.89,0,41.22,5.89,55,17.67c13.78,11.78,21.22,27.78,22.33,48
		H800.6c-0.45-9.11-3.89-16.22-10.33-21.33c-6.45-5.11-15-7.67-25.67-7.67s-19.17,2.61-25.5,7.83c-6.33,5.22-9.5,12.28-9.5,21.17
		c0,7.33,2.33,13.67,7,19s11.89,9.45,21.67,12.33l28,8c19.55,5.56,34.5,14.5,44.84,26.84c10.33,12.33,15.5,27.73,15.5,46.17
		c0,10.45-1.95,19.89-5.83,28.34c-3.89,8.45-9.39,15.67-16.5,21.67c-7.12,6-15.67,10.67-25.67,14s-21.23,5-33.67,5
		c-12,0-22.95-1.61-32.84-4.83c-9.89-3.22-18.39-7.72-25.5-13.5c-7.12-5.78-12.67-12.78-16.67-21
		C685.92,356.4,683.7,347.18,683.26,336.95z"/>
</g>
<path d="M391.34,283.73l-2.33,1.25c-0.04-0.72-0.1-1.41-0.17-2.12L391.34,283.73z"/>
<path d="M391.34,283.73l-2.33,1.25c-0.04-0.72-0.1-1.41-0.17-2.12L391.34,283.73z"/>
</svg>
